<?xml version="1.0" encoding="iso-8859-1"?>
<!-- Generator: Adobe Illustrator 19.0.0, SVG Export Plug-In . SVG Version: 6.00 Build 0)  -->
<svg version="1.1" id="Layer_1" xmlns="http://www.w3.org/2000/svg" xmlns:xlink="http://www.w3.org/1999/xlink" x="0px" y="0px"
	 viewBox="0 0 512 512" style="enable-background:new 0 0 512 512;" xml:space="preserve">
<g>
	<g>
		<path d="M435.2,204.8h-25.6v-51.2C409.6,68.77,340.83,0,256,0S102.4,68.77,102.4,153.6v51.2H76.8c-14.14,0-25.6,11.46-25.6,25.6
			v256c0,14.14,11.46,25.6,25.6,25.6h358.4c14.14,0,25.6-11.46,25.6-25.6v-256C460.8,216.26,449.34,204.8,435.2,204.8z M128,153.6
			c0-70.579,57.421-128,128-128s128,57.421,128,128v51.2H128V153.6z M435.2,486.4H76.8v-256h358.4V486.4z" fill='#fff'/>
	</g>
</g>
<g>
	<g>
		<path d="M256,307.2c-21.205,0-38.4,17.195-38.4,38.4c0,16.691,10.718,30.763,25.6,36.053V435.2h25.6v-53.547
			c14.882-5.291,25.6-19.354,25.6-36.053C294.4,324.395,277.205,307.2,256,307.2z M256,358.4c-7.057,0-12.8-5.743-12.8-12.8
			s5.743-12.8,12.8-12.8c7.057,0,12.8,5.743,12.8,12.8S263.057,358.4,256,358.4z" fill='#fff'/>
	</g>
</g>
<g>
</g>
<g>
</g>
<g>
</g>
<g>
</g>
<g>
</g>
<g>
</g>
<g>
</g>
<g>
</g>
<g>
</g>
<g>
</g>
<g>
</g>
<g>
</g>
<g>
</g>
<g>
</g>
<g>
</g>
</svg>
